<svg xmlns="http://www.w3.org/2000/svg" width="16" height="16" viewBox="0 0 32 32"><path fill-rule="evenodd" d="M11.333 1a4.502 4.502 0 0 0-4.388 3.5H0v2h6.945a4.502 4.502 0 0 0 8.777 0H32v-2H15.722A4.502 4.502 0 0 0 11.333 1Zm-2.5 4.5a2.5 2.5 0 1 1 5 0 2.5 2.5 0 0 1-5 0Zm11.834 6a4.502 4.502 0 0 0-4.389 3.5H0v2h16.278a4.502 4.502 0 0 0 8.777 0H32v-2h-6.945a4.502 4.502 0 0 0-4.388-3.5Zm-2.5 4.5a2.5 2.5 0 1 1 5 0 2.5 2.5 0 0 1-5 0Zm-2.445 11.5H32v-2H15.722a4.502 4.502 0 0 0-8.777 0H0v2h6.945a4.502 4.502 0 0 0 8.777 0Zm-6.889-1a2.5 2.5 0 1 1 5 0 2.5 2.5 0 0 1-5 0Z" clip-rule="evenodd"/></svg>