<svg xmlns="http://www.w3.org/2000/svg" width="16" height="16" viewBox="0 0 32 32" icon="washing_machine_available"><path fill-rule="evenodd" d="M16 8a9.167 9.167 0 1 0 0 18.333A9.167 9.167 0 0 0 16 8Zm-7.167 9.167a7.167 7.167 0 1 1 14.308.614c-1.068 1.085-1.953 1.886-3.712 1.886-.856 0-1.772-.444-2.974-1.058l-.1-.05c-1.067-.546-2.397-1.226-3.784-1.226-1.584 0-2.72.49-3.62 1.131a7.208 7.208 0 0 1-.118-1.297Zm.805 3.303A7.166 7.166 0 0 0 16 24.333a7.16 7.16 0 0 0 5.948-3.167c-.697.305-1.519.5-2.52.5-1.386 0-2.716-.679-3.782-1.224l-.1-.051c-1.203-.614-2.12-1.058-2.975-1.058-1.321 0-2.15.452-2.933 1.137Z" clip-rule="evenodd"/><path d="M20.833 5.667h4.334v2h-4.334v-2Z"/><path fill-rule="evenodd" d="M4.556 1A2.556 2.556 0 0 0 2 3.556v24.888A2.556 2.556 0 0 0 4.556 31h22.888A2.556 2.556 0 0 0 30 28.444V3.556A2.556 2.556 0 0 0 27.444 1H4.556ZM4 3.556C4 3.249 4.249 3 4.556 3h22.888c.307 0 .556.249.556.556v24.888a.556.556 0 0 1-.556.556H4.556A.556.556 0 0 1 4 28.444V3.556Z" clip-rule="evenodd"/></svg>