<svg class="svg-icon" xmlns="http://www.w3.org/2000/svg" width="16" height="16" viewBox="0 0 32 32" icon="kitchen"><path d="M7.64 28.18v-6.96h-2v6.96h2Zm4.64-6.96v6.96h-2v-6.96h2Z"/><path fill-rule="evenodd" d="M5.64 3.82a3.32 3.32 0 1 1 6.64 0v4.64a3.321 3.321 0 0 1-2.32 3.167V17.9h3.221a2.16 2.16 0 0 1 2.136 1.84l1.392 9.28a2.16 2.16 0 0 1-2.136 2.48H3.347a2.16 2.16 0 0 1-2.136-2.48l1.392-9.28a2.16 2.16 0 0 1 2.136-1.84H7.96v-6.273A3.322 3.322 0 0 1 5.64 8.46V3.82ZM8.96 2.5a1.32 1.32 0 0 0-1.32 1.32v4.64a1.32 1.32 0 1 0 2.64 0V3.82A1.32 1.32 0 0 0 8.96 2.5Zm5.613 27a.16.16 0 0 0 .158-.184l-1.392-9.28a.16.16 0 0 0-.158-.136H4.739a.16.16 0 0 0-.158.136l-1.392 9.28a.16.16 0 0 0 .158.184h11.226Zm7.763-29a5.64 5.64 0 0 0-5.596 6.34l.707 5.656a4.48 4.48 0 0 0 4.445 3.924h1.148v3.953a3.322 3.322 0 0 0-2.32 3.167v4.64a3.32 3.32 0 1 0 6.64 0v-4.64a3.322 3.322 0 0 0-2.32-3.167V16.42h1.148a4.48 4.48 0 0 0 4.445-3.924l.707-5.656A5.64 5.64 0 0 0 25.744.5h-3.408Zm-3.612 6.091A3.642 3.642 0 0 1 20.96 2.77a3.22 3.22 0 0 0-.142 1.09l.411 9.864c.01.218.043.43.099.632a2.48 2.48 0 0 1-1.896-2.107l-.707-5.657Zm4.503 7.049a.814.814 0 0 0 1.626 0l.411-9.864a1.225 1.225 0 1 0-2.448 0l.41 9.864Zm3.625.083a2.82 2.82 0 0 1-.099.632 2.48 2.48 0 0 0 1.896-2.107l.707-5.657A3.642 3.642 0 0 0 27.12 2.77c.107.343.157.71.142 1.09l-.411 9.864ZM22.72 23.54a1.32 1.32 0 0 1 2.64 0v4.64a1.32 1.32 0 0 1-2.64 0v-4.64Z" clip-rule="evenodd"/></svg>