<svg class="svg-icon" aria-hidden="true" viewBox="0 0 24 24" xmlns="http://www.w3.org/2000/svg" xmlns:xlink="http://www.w3.org/1999/xlink"><path d="M20.7 4.75h-1.297a3.1 3.1 0 0 0-2.888 2l-1.002 2.672H10.95v-6.25a.75.75 0 0 0-.75-.75A7.7 7.7 0 0 0 6.343 3.46c-.015.008-.032.008-.048.017-.018.01-.028.029-.045.04a7.79 7.79 0 0 0-2.703 2.704c-.012.017-.03.027-.041.045-.01.015-.008.033-.016.048a7.7 7.7 0 0 0-1.038 3.858c0 .037.016.069.02.104.005.026-.004.052.002.078l.945 3.783a1.913 1.913 0 0 0 1.859 1.452H13.2l-.321.857a2.49 2.49 0 0 0-1.87 1.143H7.06a2.494 2.494 0 0 0-2.107-1.167 2.503 2.503 0 0 0-2.5 2.5c0 1.379 1.122 2.5 2.5 2.5a2.496 2.496 0 0 0 2.483-2.333h3.2a2.495 2.495 0 0 0 2.484 2.333c1.379 0 2.5-1.121 2.5-2.5 0-.924-.51-1.723-1.256-2.156l2.363-6.302 1.195-3.186a1.592 1.592 0 0 1 1.483-1.027h1.298a.75.75 0 0 0-.001-1.5zM9.453 7.399 7.736 4.457a6.17 6.17 0 0 1 1.716-.49v3.43zM6.432 5.2l1.685 2.888L5.244 6.41a6.28 6.28 0 0 1 1.188-1.211zm-2.41 4.222A6.166 6.166 0 0 1 4.479 7.7l2.949 1.72H4.022zm1.256 4.667a.416.416 0 0 1-.404-.315l-.712-2.851H14.95l-1.188 3.167H5.278v-.001zm-.326 5.833a1 1 0 0 1 0-2 1 1 0 0 1 0 2zm8.166 0a1 1 0 1 1 .002-2 1 1 0 0 1-.002 2z"/></svg>