<svg class="svg-icon" aria-hidden="true" viewBox="0 0 24 24" xmlns="http://www.w3.org/2000/svg" xmlns:xlink="http://www.w3.org/1999/xlink"><path d="M12.4 13.18a.75.75 0 0 0 .75-.75v-.88a.75.75 0 0 0-1.5 0v.88c0 .42.34.75.75.75z"/><path d="M17 2H5.52a.76.76 0 0 0-.7.43.74.74 0 0 0-.07.33v15.06c0 1.05.71 1.95 1.73 2.2l8.35 1.96a.75.75 0 0 0 .92-.73V6.17a2.24 2.24 0 0 0-1.73-2.2l-2.06-.48H17c.41 0 .75.34.75.75v14.62a.75.75 0 0 0 1.5 0V4.24A2.25 2.25 0 0 0 17 2zm-2.75 4.17V20.3l-7.42-1.75a.75.75 0 0 1-.58-.73V3.7l7.42 1.75c.34.08.58.38.58.73z"/></svg>