<svg class="svg-icon" aria-hidden="true" viewBox="0 0 24 24" xmlns="http://www.w3.org/2000/svg"><path d="M20.477 2.188a.75.75 0 0 1 .013 1.06 1.06 1.06 0 0 0 .008 1.489c.991.993 1 2.597.021 3.598a.75.75 0 0 1-1.073-1.049 1.06 1.06 0 0 0-.009-1.489 2.56 2.56 0 0 1-.021-3.596.75.75 0 0 1 1.06-.013zm-1.953 3.795a.75.75 0 0 1 .012 1.06 1.06 1.06 0 0 0 .01 1.49.75.75 0 0 1-1.062 1.06 2.56 2.56 0 0 1-.02-3.598.75.75 0 0 1 1.06-.012z"/><path fill-rule="evenodd" d="M2.753 11.103a.75.75 0 0 1 .75-.75h15.2a2.538 2.538 0 1 1 0 5.076h-15.2a.75.75 0 0 1-.75-.75v-3.576zm1.5 2.826v-2.076h2.97v2.076h-2.97zm4.47 0v-2.076h8.23v2.076h-8.23zm11.019-1.038c0 .609-.305 1.038-1.289 1.038v-2.076c.984 0 1.289.428 1.289 1.038z" clip-rule="evenodd"/></svg>