<svg xmlns="http://www.w3.org/2000/svg" width="16" height="16" viewBox="0 0 32 32" icon="bath"><path fill-rule="evenodd" d="M3.758 32.018V6.28a3.68 3.68 0 0 1 7.165-1.185 8.02 8.02 0 0 0-3.662 10.552l.495 1.06a1 1 0 0 0 1.329.484l12.723-5.933a1 1 0 0 0 .484-1.329l-.494-1.06a8.023 8.023 0 0 0-8.99-4.445A5.682 5.682 0 0 0 1.758 6.28v25.738h2ZM19.985 9.714l.072.154-10.911 5.088-.072-.154a6.02 6.02 0 0 1 10.911-5.088Z" clip-rule="evenodd"/><path d="m15.794 17.778.885 2.429-1.88.684-.884-2.429 1.88-.684Zm2.481 6.848-.884-2.43-1.88.685.885 2.429 1.88-.684Zm.713 1.989.884 2.43-1.88.683-.884-2.429 1.88-.684Zm1.981-8.6-1.293-2.24-1.732 1 1.293 2.24 1.732-1Zm1.058 1.828 1.292 2.239-1.732 1-1.292-2.239 1.732-1Zm3.642 6.307-1.293-2.24-1.732 1 1.292 2.24 1.733-1ZM23.61 13.259l1.483 2.117-1.638 1.147-1.483-2.117 1.638-1.147Zm4.214 6.007-1.483-2.117-1.638 1.147 1.483 2.117 1.638-1.147Zm1.238 1.778 1.482 2.117-1.638 1.147-1.482-2.117 1.638-1.147Zm-17.002.793-.67-2.497-1.931.518.669 2.497 1.931-.518Zm.556 2.095.67 2.497-1.932.518-.67-2.497 1.932-.518Zm1.894 7.089-.668-2.497-1.932.518.669 2.497 1.932-.518Z"/></svg>