<svg xmlns="http://www.w3.org/2000/svg" width="16" height="16" viewBox="0 0 32 32" icon="whirlpool"><path fill-rule="evenodd" d="M10 0a7 7 0 1 1 0 14 7 7 0 0 1 0-14Zm5 7A5 5 0 1 0 5 7a5 5 0 0 0 10 0ZM7.5 26A2.75 2.75 0 1 1 2 26H0a4.75 4.75 0 0 0 8.5 2.916 4.742 4.742 0 0 0 3.75 1.834c1.524 0 2.88-.718 3.75-1.834a4.742 4.742 0 0 0 3.75 1.834c1.524 0 2.88-.718 3.75-1.834A4.75 4.75 0 0 0 32 26h-2a2.75 2.75 0 1 1-5.5 0h-2a2.75 2.75 0 1 1-5.5 0h-.006a4.75 4.75 0 1 0-9.487 0H7.5Zm7.5-.25a2.75 2.75 0 1 0-5.5 0 2.75 2.75 0 0 0 5.5 0Z" clip-rule="evenodd"/><path fill-rule="evenodd" d="M29.5 17a6 6 0 1 0-12 0 6 6 0 0 0 12 0Zm-6-4a4 4 0 1 1 0 8 4 4 0 0 1 0-8Z" clip-rule="evenodd"/></svg>