<svg class="svg-icon" xmlns="http://www.w3.org/2000/svg" viewBox="0 0 32 32"><path fill-rule="evenodd" d="M16.925 2.38a1 1 0 0 0-1.396-1.262c-4.404 2.348-6.886 4.842-8.252 7.26C5.908 10.8 5.72 13.044 5.72 14.76c0 2.556 1.004 4.858 2.826 6.513 1.818 1.651 4.39 2.607 7.454 2.607s5.636-.956 7.454-2.607c1.822-1.655 2.826-3.957 2.826-6.513 0-3.615-1.926-7.058-5.126-8.977a1 1 0 0 0-1.029 0c-2.19 1.314-3.416 3.393-4.19 5.182-.5-2.046-.45-5.074.99-8.585zM7.72 14.76c0-1.547.169-3.399 1.298-5.399.907-1.604 2.47-3.369 5.19-5.146-1.121 4.335-.436 8.027.984 9.974a1 1 0 0 0 1.747-.246l.12-.33c.676-1.87 1.55-4.284 3.587-5.777 2.286 1.605 3.634 4.214 3.634 6.924 0 2.012-.78 3.77-2.17 5.033-1.395 1.266-3.463 2.087-6.11 2.087-2.647 0-4.715-.82-6.11-2.087-1.39-1.263-2.17-3.021-2.17-5.033z" clip-rule="evenodd"/><path d="M6.634 26.256C3.885 25.012 1.62 23.52.31 22.513l1.22-1.586c1.203.926 3.337 2.334 5.928 3.507 2.598 1.175 5.594 2.086 8.542 2.086 2.948 0 5.944-.91 8.541-2.086 2.592-1.173 4.726-2.58 5.93-3.507l1.219 1.586c-1.31 1.007-3.575 2.5-6.324 3.743-.812.367-1.672.716-2.566 1.024V31h-2v-3.12c-1.55.396-3.17.64-4.8.64s-3.25-.244-4.8-.64V31h-2v-3.72a29.745 29.745 0 0 1-2.566-1.024z"/></svg>