<svg xmlns="http://www.w3.org/2000/svg" viewBox="0 0 32 32"><path fill-rule="evenodd" d="m3.737 8.707 6.314 6.314a6.065 6.065 0 0 0-.012 1.877c-1.81.229-4.122.82-6.59 2.265-1.523.892-2.271 2.391-2.328 3.936-.057 1.526.555 3.103 1.727 4.275l.89.889a3.514 3.514 0 0 0 4.97 0l6.313-6.314a6.066 6.066 0 0 0 1.877.012c.228 1.81.82 4.123 2.265 6.59.891 1.523 2.391 2.272 3.936 2.329 1.526.056 3.103-.556 4.275-1.728l.889-.89a3.514 3.514 0 0 0 0-4.969l-6.314-6.314a6.065 6.065 0 0 0 .012-1.877c1.811-.228 4.123-.82 6.59-2.264 1.523-.892 2.271-2.392 2.328-3.937.057-1.526-.555-3.102-1.727-4.275l-.89-.889a3.514 3.514 0 0 0-4.97 0l-6.313 6.314a6.065 6.065 0 0 0-1.877-.012c-.228-1.81-.82-4.122-2.264-6.59-.892-1.523-2.392-2.271-3.937-2.328-1.526-.056-3.103.555-4.275 1.728l-.889.888a3.514 3.514 0 0 0 0 4.97zm1.415-1.414 5.65 5.65a6.039 6.039 0 0 1 2.36-2.263c-.163-1.643-.66-3.845-2.05-6.22-.512-.873-1.35-1.306-2.285-1.34-.953-.036-1.995.351-2.787 1.143l-.888.889a1.514 1.514 0 0 0 0 2.141zm13.904 3.51a6.026 6.026 0 0 1 2.264 2.36c1.643-.164 3.845-.66 6.22-2.051.873-.511 1.306-1.35 1.34-2.284.036-.953-.351-1.996-1.143-2.787l-.888-.89a1.514 1.514 0 0 0-2.142 0l-5.65 5.651zM4.46 20.888c2.375-1.39 4.577-1.888 6.22-2.05a6.04 6.04 0 0 0 2.264 2.359l-5.651 5.65a1.514 1.514 0 0 1-2.141 0l-.89-.888c-.79-.792-1.178-1.834-1.143-2.787.035-.934.468-1.773 1.34-2.284zm16.738-1.832a6.04 6.04 0 0 1-2.36 2.263c.163 1.643.66 3.845 2.05 6.22.512.873 1.35 1.306 2.285 1.34.953.036 1.995-.35 2.787-1.142l.889-.89a1.514 1.514 0 0 0 0-2.14l-5.651-5.651zm-8.046-5.905a4.028 4.028 0 1 0 5.696 5.696 4.028 4.028 0 0 0-5.696-5.696z" clip-rule="evenodd"/></svg>