<svg xmlns="http://www.w3.org/2000/svg" width="16" height="16" viewBox="0 0 32 32" icon="suitable_for_events"><path d="M15.26 7.754A5.754 5.754 0 0 0 9.504 2V0a7.754 7.754 0 0 1 7.754 7.754h-2Z"/><path fill-rule="evenodd" d="M7.142 11.347.477 28.667c-.662 1.72 1.028 3.41 2.747 2.748l17.287-6.656a3.477 3.477 0 0 0 1.697-.925c1.292-1.291 1.242-3.299.628-5.14-.635-1.904-1.967-3.981-3.812-5.826-1.844-1.844-3.92-3.177-5.826-3.811-1.84-.614-3.848-.664-5.14.627a3.47 3.47 0 0 0-.916 1.663Zm5.515 7.889c-1.673-1.673-2.811-3.492-3.329-5.044-.538-1.616-.322-2.626.145-3.093.467-.467 1.477-.684 3.093-.145 1.552.517 3.372 1.656 5.044 3.328 1.673 1.673 2.811 3.492 3.329 5.045.538 1.615.322 2.626-.145 3.093-.467.467-1.477.683-3.093.144-1.552-.517-3.372-1.656-5.044-3.328Zm-4.972-3.73-5.342 13.88a.117.117 0 0 0-.008.072.136.136 0 0 0 .037.062.135.135 0 0 0 .063.037.11.11 0 0 0 .07-.008l13.877-5.343c-1.709-.703-3.515-1.931-5.14-3.556-1.626-1.627-2.855-3.434-3.557-5.145Z" clip-rule="evenodd"/><path d="M29.892 22.387a5.754 5.754 0 0 0-5.753-5.754v-2a7.754 7.754 0 0 1 7.753 7.754h-2Zm-3.733-20.94-4.503 9.005-1.789-.894L24.37.553l1.789.894Zm-.523 9.487 5.628-2.252-.743-1.857-5.628 2.252.743 1.857Z"/></svg>