<svg xmlns="http://www.w3.org/2000/svg" width="16" height="16" viewBox="0 0 32 32" icon="heating"><path d="M12.667 4c0-1.17-.723-1.804-1.929-2.696l1.19-1.608.017.013C13.072.544 14.667 1.725 14.667 4c0 .665-.226 1.238-.496 1.71-.257.451-.59.87-.867 1.219l-.02.026c-.303.38-.543.687-.718.992-.167.294-.233.52-.233.72 0 1.17.724 1.803 1.929 2.696l-1.19 1.607-.017-.012c-1.127-.835-2.722-2.016-2.722-4.291 0-.665.226-1.238.496-1.711.257-.45.59-.869.867-1.218l.02-.027c.303-.38.543-.686.718-.991.167-.294.233-.52.233-.72Zm-7 21v-5.833h2V25h-2Zm4.666-5.833V25h2v-5.833h-2ZM19.667 25v-5.833h2V25h-2ZM15 19.167V25h2v-5.833h-2ZM24.333 25v-5.833h2V25h-2Z"/><path fill-rule="evenodd" d="M4.333 14.667A3.333 3.333 0 0 0 1 18v8.167A3.333 3.333 0 0 0 4.333 29.5h2.5V32h2v-2.5h14.334V32h2v-2.5h2.5A3.333 3.333 0 0 0 31 26.167V18a3.333 3.333 0 0 0-3.333-3.333H4.333ZM24.173 27.5h3.494c.736 0 1.333-.597 1.333-1.333V18c0-.736-.597-1.333-1.333-1.333H4.333C3.597 16.667 3 17.264 3 18v8.167c0 .736.597 1.333 1.333 1.333h19.84Z" clip-rule="evenodd"/><path d="M17.738 1.304c1.206.892 1.929 1.526 1.929 2.696 0 .2-.066.426-.234.72-.174.305-.414.611-.716.991l-.021.027c-.277.35-.61.767-.867 1.218-.27.473-.496 1.046-.496 1.71 0 2.276 1.595 3.457 2.722 4.292l.016.012 1.19-1.607c-1.204-.893-1.928-1.526-1.928-2.696 0-.2.066-.426.234-.72.174-.305.414-.612.716-.992l.021-.026c.277-.35.61-.768.867-1.218.27-.473.496-1.046.496-1.711 0-2.275-1.595-3.456-2.722-4.291l-.016-.013-1.19 1.608Z"/></svg>