<svg xmlns="http://www.w3.org/2000/svg" width="16" height="16" viewBox="0 0 16 16" icon="king_size_bed"><path d="M13.012 5.247v-.579h1.362c.133 0 .249.093.279.224l1.34 5.873a.289.289 0 0 1-.28.355H.287a.289.289 0 0 1-.279-.355l1.34-5.873a.287.287 0 0 1 .279-.224h1.527v.579h-1.3L.646 10.54h14.708l-1.207-5.293h-1.135z"/><path d="M.572 11.112v1.915c0 .235.305.461.722.461h13.412c.41 0 .722-.234.722-.46v-1.916H.572zM16 13.027c0 .59-.6 1.04-1.294 1.04H1.294c-.701 0-1.294-.438-1.294-1.04v-2.204c0-.16.128-.29.286-.29h15.428c.158 0 .286.13.286.29v2.204zM1.326 7.205a.29.29 0 1 1 0-.58h13.348a.29.29 0 1 1 0 .58H1.326zM6.757 4.76H3.43l-.17.883h3.47l.028-.883zm.253 1.462h-4.1a.29.29 0 0 1-.284-.344l.282-1.463a.29.29 0 0 1 .284-.235h3.863a.29.29 0 0 1 .29.299l-.046 1.463a.29.29 0 0 1-.29.28zm2.148 0a.29.29 0 0 1-.29-.282l-.037-1.462a.29.29 0 0 1 .289-.298h3.863a.29.29 0 0 1 .284.235l.282 1.463a.29.29 0 0 1-.284.344H9.158zm3.756-.579-.17-.883H9.417l.023.883h3.474z"/><path d="M1.813 4.957a.29.29 0 1 1-.579 0V3.75c0-.59.607-1.04 1.31-1.04h10.888c.714 0 1.334.44 1.334 1.04v1.207a.29.29 0 1 1-.58 0V3.75c0-.23-.325-.46-.754-.46H2.545c-.415 0-.732.234-.732.46v1.207zm.122 8.883a.29.29 0 1 1 .58 0v.487a.29.29 0 1 1-.58 0v-.487zm11.551 0a.29.29 0 1 1 .579 0v.487a.29.29 0 1 1-.58 0v-.487z"/><path d="M7.055 5.3a.29.29 0 1 1 0-.58H9.12a.29.29 0 0 1 0 .58H7.055z"/></svg>