<svg xmlns="http://www.w3.org/2000/svg" width="16" height="16" viewBox="0 0 32 32" icon="games"><path d="M16 4.25a1.75 1.75 0 1 0 0 3.5 1.75 1.75 0 0 0 0-3.5Zm10 0a1.75 1.75 0 1 0 0 3.5 1.75 1.75 0 0 0 0-3.5Zm0 10a1.75 1.75 0 1 0 0 3.5 1.75 1.75 0 0 0 0-3.5Zm-20 0a1.75 1.75 0 1 0 0 3.5 1.75 1.75 0 0 0 0-3.5Zm0 10a1.75 1.75 0 1 0 0 3.5 1.75 1.75 0 0 0 0-3.5Zm10-10a1.75 1.75 0 1 0 0 3.5 1.75 1.75 0 0 0 0-3.5Zm-5 0a1.75 1.75 0 1 0 0 3.5 1.75 1.75 0 0 0 0-3.5Zm5 10a1.75 1.75 0 1 0 0 3.5 1.75 1.75 0 0 0 0-3.5Zm-5 0a1.75 1.75 0 1 0 0 3.5 1.75 1.75 0 0 0 0-3.5Z"/><path fill-rule="evenodd" d="M29.333 0A2.667 2.667 0 0 1 32 2.667v16.666A2.667 2.667 0 0 1 29.333 22H22v7.333A2.667 2.667 0 0 1 19.333 32H2.667A2.667 2.667 0 0 1 0 29.333V12.667A2.667 2.667 0 0 1 2.667 10H10V2.667A2.667 2.667 0 0 1 12.667 0h16.666ZM12 10h7.333A2.667 2.667 0 0 1 22 12.667V20h7.333a.667.667 0 0 0 .667-.667V2.667A.667.667 0 0 0 29.333 2H12.667a.667.667 0 0 0-.667.667V10Zm7.333 2c.369 0 .667.299.667.667v16.666a.667.667 0 0 1-.667.667H2.667A.667.667 0 0 1 2 29.333V12.667c0-.368.298-.667.667-.667h16.666Z" clip-rule="evenodd"/></svg>