<svg class="svg-icon" aria-hidden="true" viewBox="0 0 24 24" xmlns="http://www.w3.org/2000/svg"><path fill-rule="evenodd" d="M18.456 16.214a3.164 3.164 0 0 0-2.449-3.484 3.77 3.77 0 0 0-4.414-3.027l1.817 1.725c.327.184.604.447.805.763l4.24 4.023zm-8.6-8.159L6.759 5.118a2.561 2.561 0 1 1 3.097 2.937zm-.915.982 11.953 11.647a.75.75 0 0 1-1.167.923L16.7 18.665a3.15 3.15 0 0 1-1.382.317H15.3a4.129 4.129 0 0 1-1.853-.488 2.5 2.5 0 0 0-2.294 0 4.124 4.124 0 0 1-1.852.488h-.018a3.163 3.163 0 0 1-.69-6.251 3.74 3.74 0 0 1 .56-1.397l-.93-.904a2.561 2.561 0 1 1-2.677-2.6L2.227 4.607A.75.75 0 1 1 3.273 3.53L8.94 9.037zM8.22 5.56a1.06 1.06 0 1 1 2.12 0 1.06 1.06 0 0 1-2.12 0zM15.317 3a2.56 2.56 0 1 0-.001 5.12A2.56 2.56 0 0 0 15.317 3zm-1.06 2.56a1.06 1.06 0 1 1 2.12 0 1.06 1.06 0 0 1-2.12 0zm-4.225 7.845c0-.356.082-.694.229-.994l5.213 5.064a1.68 1.68 0 0 1-.148.007 2.628 2.628 0 0 1-1.174-.312l-.01-.006a4 4 0 0 0-3.685 0l-.011.006c-.359.194-.76.3-1.173.312a1.663 1.663 0 0 1 .01-3.327.75.75 0 0 0 .75-.75zm-5.431-3.018a1.06 1.06 0 1 1 2.12.001 1.06 1.06 0 0 1-2.12 0zm14.94-2.56a2.56 2.56 0 1 0-.001 5.12 2.56 2.56 0 0 0 0-5.12zm-1.061 2.56a1.06 1.06 0 1 1 2.12 0 1.06 1.06 0 0 1-2.12 0z" clip-rule="evenodd"/></svg>