<svg xmlns="http://www.w3.org/2000/svg" width="16" height="16" viewBox="0 0 32 32" icon="internet"><path d="M29.991 12.556c-7.81-7.81-20.473-7.81-28.284 0L.293 11.142c8.591-8.591 22.521-8.591 31.113 0l-1.415 1.414Z"/><path d="M25.749 16.799c-5.468-5.467-14.332-5.467-19.8 0l-1.413-1.414c6.248-6.249 16.379-6.249 22.627 0l-1.414 1.414Z"/><path d="M10.192 21.042a8 8 0 0 1 11.314 0l1.414-1.415c-3.905-3.905-10.237-3.905-14.142 0l1.414 1.415Z"/><path fill-rule="evenodd" d="M15.85 22.284a3 3 0 1 0 0 6 3 3 0 0 0 0-6Zm-1 3a1 1 0 1 1 2 0 1 1 0 0 1-2 0Z" clip-rule="evenodd"/></svg>