<svg class="svg-icon" aria-hidden="true" viewBox="0 0 24 24" xmlns="http://www.w3.org/2000/svg"><path d="M14.906 13.731a3.773 3.773 0 0 0-3.707-3.094 3.774 3.774 0 0 0-3.707 3.094 3.167 3.167 0 0 0-2.474 3.087 3.17 3.17 0 0 0 3.181 3.164 4.155 4.155 0 0 0 1.848-.485 2.5 2.5 0 0 1 2.292-.006c.566.306 1.21.476 1.877.491a3.167 3.167 0 0 0 3.163-3.164 3.165 3.165 0 0 0-2.473-3.087zm-.671 4.751a2.638 2.638 0 0 1-1.192-.317 4.001 4.001 0 0 0-3.696.006c-.36.194-.769.302-1.164.312a1.665 1.665 0 0 1-1.663-1.664c0-.917.746-1.663 1.663-1.663a.75.75 0 0 0 .75-.75 2.27 2.27 0 0 1 2.267-2.268 2.27 2.27 0 0 1 2.268 2.268c0 .414.336.75.75.75a1.663 1.663 0 1 1 .017 3.326zm-7.113-7.095a2.562 2.562 0 0 0-2.56-2.56 2.563 2.563 0 0 0-2.561 2.56 2.564 2.564 0 0 0 2.561 2.561 2.563 2.563 0 0 0 2.56-2.56v-.001zm-2.56 1.061a1.062 1.062 0 0 1-1.061-1.06c0-.585.476-1.06 1.061-1.06a1.061 1.061 0 0 1 0 2.121v-.001zm3.62-3.328a2.563 2.563 0 0 0 2.561-2.56A2.563 2.563 0 0 0 8.182 4a2.564 2.564 0 0 0-2.561 2.56 2.564 2.564 0 0 0 2.561 2.56zm0-3.62c.585 0 1.061.476 1.061 1.06a1.062 1.062 0 0 1-2.122 0c0-.584.476-1.06 1.061-1.06zm6.035 3.62a2.563 2.563 0 0 0 2.561-2.56A2.563 2.563 0 0 0 14.217 4a2.563 2.563 0 0 0-2.561 2.56 2.563 2.563 0 0 0 2.561 2.56zm0-3.62c.585 0 1.061.476 1.061 1.06a1.062 1.062 0 0 1-2.122 0c0-.584.476-1.06 1.061-1.06zm4.224 3.327a2.563 2.563 0 0 0-2.561 2.56 2.563 2.563 0 0 0 5.123.001 2.565 2.565 0 0 0-2.562-2.56v-.001zm0 3.621a1.062 1.062 0 0 1-1.061-1.06 1.062 1.062 0 0 1 2.123 0 1.064 1.064 0 0 1-1.062 1.06z"/></svg>