<svg xmlns="http://www.w3.org/2000/svg" width="16" height="16" viewBox="0 0 32 32" icon="microwave"><path fill-rule="evenodd" d="M4.286 11.976a2.333 2.333 0 0 1 2.333-2.333h12.333a2.333 2.333 0 0 1 2.334 2.333v8.048a2.333 2.333 0 0 1-2.334 2.333H6.62a2.333 2.333 0 0 1-2.333-2.333v-8.048Zm2.333-.333a.333.333 0 0 0-.333.333v8.048c0 .184.149.333.333.333h12.333c.184 0 .334-.15.334-.333v-8.048a.333.333 0 0 0-.334-.333H6.62Z" clip-rule="evenodd"/><path d="M27.714 10.714h-4.143v2h4.143v-2ZM23.571 15h4.143v2h-4.143v-2Zm4.143 4.285h-4.143v2h4.143v-2Z"/><path fill-rule="evenodd" d="M29.667 5.357A2.333 2.333 0 0 1 32 7.69v16.62a2.333 2.333 0 0 1-2.333 2.333H2.333A2.333 2.333 0 0 1 0 24.309V7.69a2.333 2.333 0 0 1 2.333-2.333h27.334ZM30 7.69a.333.333 0 0 0-.333-.333H2.333A.333.333 0 0 0 2 7.69v16.62c0 .183.15.333.333.333h27.334c.184 0 .333-.15.333-.334V7.69Z" clip-rule="evenodd"/></svg>