<svg class="svg-icon" xmlns="http://www.w3.org/2000/svg" viewBox="0 0 32 32"><path fill-rule="evenodd" d="M28.5 1.25a3.5 3.5 0 0 1 3.5 3.5V6h-2V4.75a1.5 1.5 0 0 0-3 0V23.5h-2v-2.75h-8v2.75h-2V4.75a3.5 3.5 0 1 1 7 0V6h-2V4.75a1.5 1.5 0 0 0-3 0v4h8v-4a3.5 3.5 0 0 1 3.5-3.5zm-3.5 9.5h-8v3h8v-3zm0 5v3h-8v-3h8z" clip-rule="evenodd"/><path d="M4.75 28.75A2.75 2.75 0 0 0 7.5 26h2a2.75 2.75 0 1 0 5.5 0h2a2.75 2.75 0 1 0 5.5 0h2a2.75 2.75 0 1 0 5.5 0h2a4.75 4.75 0 0 1-8.5 2.916 4.742 4.742 0 0 1-3.75 1.834A4.742 4.742 0 0 1 16 28.916a4.742 4.742 0 0 1-3.75 1.834 4.742 4.742 0 0 1-3.75-1.834A4.75 4.75 0 0 1 0 26h2a2.75 2.75 0 0 0 2.75 2.75z"/></svg>