<svg class="svg-icon" aria-hidden="true" viewBox="0 0 24 24" xmlns="http://www.w3.org/2000/svg"><path fill-rule="evenodd" d="M1.212 2.227a.75.75 0 0 1 1.06-.015l17.5 17a.75.75 0 0 1-1.045 1.076l-2.649-2.573a2.5 2.5 0 1 1-4.805 1.124H8.097a2.5 2.5 0 1 1-.38-1.5h3.937a2.499 2.499 0 0 1 1.882-1.156l.258-.688-.16-.156H5.928a1.917 1.917 0 0 1-1.86-1.452l-.944-3.783C2.5 8 3.5 6.5 4.113 6.09L1.227 3.288a.75.75 0 0 1-.015-1.06zm3.434 6.945h2.639L5.2 7.148c-.554.352-.7 1.352-.554 2.024zm7.443 4.667-3.26-3.167H4.812l.712 2.851a.417.417 0 0 0 .404.316h6.16zM6.6 18.672a1 1 0 1 1-1-1c.553 0 1 .496 1 1zm7.167 1a1 1 0 0 1-1-1c0-.502.446-1 1-1a1 1 0 1 1 0 2zm2.335-6.062-1.182-1.12.681-1.818h-2.597L5.915 3.947a7.718 7.718 0 0 1 4.936-1.775.75.75 0 0 1 .75.75v6.25h4.563l1.001-2.67a3.086 3.086 0 0 1 2.889-2h1.298a.75.75 0 1 1 0 1.5h-1.299c-.66 0-1.251.41-1.483 1.027l-2.468 6.582zm-6-6.462-1.73-2.965a6.208 6.208 0 0 1 1.73-.466v3.431z" clip-rule="evenodd"/></svg>