<svg class="svg-icon" xmlns="http://www.w3.org/2000/svg" viewBox="0 0 32 32"><path d="M13.833 5.667h4.334v2h-4.334v-2zm-7 0h4.334v2H6.833v-2zm18.334 0h-4.334v2h4.334v-2z"/><path fill-rule="evenodd" d="M6.833 12.5a1 1 0 0 1 1-1h7a1 1 0 0 1 1 1v4.667a4.502 4.502 0 0 1-3.5 4.388v2.778h2.5v2h-7v-2h2.5v-2.778a4.502 4.502 0 0 1-3.5-4.388V12.5zm2 1v3.667a2.5 2.5 0 0 0 5 0V13.5h-5zm9.667 13h2v-1.333h.167a4.5 4.5 0 0 0 4.5-4.5v-3.5a4.5 4.5 0 0 0-4.5-4.5H20.5v-1.334h-2V26.5zm2-11.833v8.5h.167a2.5 2.5 0 0 0 2.5-2.5v-3.5a2.5 2.5 0 0 0-2.5-2.5H20.5z" clip-rule="evenodd"/><path fill-rule="evenodd" d="M4.556 1A2.556 2.556 0 0 0 2 3.556v24.888A2.556 2.556 0 0 0 4.556 31h22.888A2.556 2.556 0 0 0 30 28.444V3.556A2.556 2.556 0 0 0 27.444 1H4.556zM4 3.556C4 3.249 4.249 3 4.556 3h22.888c.307 0 .556.249.556.556v24.888a.556.556 0 0 1-.556.556H4.556A.556.556 0 0 1 4 28.444V3.556z" clip-rule="evenodd"/></svg>