<svg class="svg-icon" aria-hidden="true" viewBox="0 0 24 24" xmlns="http://www.w3.org/2000/svg"><path d="M16.848 1a.75.75 0 0 1 .75.75c.002.108-.017.317-.03.406a3.829 3.829 0 0 1-.205.857c-.12.32-.317.69-.65.985a2 2 0 0 1-1.365.502c-.244 0-.377.059-.451.108-.096.05-.3.25-.3.65a.75.75 0 0 1-1.5-.008c0-.415.132-.83.268-1.085.138-.277.357-.576.7-.805.347-.231.777-.36 1.283-.36.19 0 .295-.057.369-.123.183-.169.38-.594.38-1.081 0-.488.349-.796.75-.796zM10.71 2.83a.75.75 0 1 0-.67-1.342 1.872 1.872 0 0 0-.816.744A1.73 1.73 0 0 0 9 3.096c0 .262.008.533.204.898a.75.75 0 0 0 1.347-.661l-.004-.008c-.03-.072-.094-.222-.02-.35.012-.02.05-.08.183-.146zm9.439 4.23a.75.75 0 0 1-.623 1.365 4.018 4.018 0 0 1-.051-.019.97.97 0 0 0-.38-.074.84.84 0 0 0-.72.296.75.75 0 1 1-1.13-.987c.607-.693 1.363-.835 1.925-.807.38.024.651.074.979.226zm-2.046 4.907a.75.75 0 0 1 .286-1.022l.004-.001c.242-.137.402-.226.928-.206.553.017 1.185.266 1.75.95.108.132.201.17.275.184a.74.74 0 0 0 .352-.035c.142-.033.352-.129.527-.27a.75.75 0 0 1 .933 1.174c-.291.232-.708.417-1.023.531a2.23 2.23 0 0 1-1.078.072 1.956 1.956 0 0 1-1.22-.804c-.142-.203-.337-.481-.735-.275a.75.75 0 0 1-1-.298z"/><path fill-rule="evenodd" d="m17.727 22.697-6.213-6.036-7.51 2.703a.75.75 0 0 1-.956-.969l2.737-7.3L.227 5.696A.75.75 0 1 1 1.273 4.62l17.5 17a.75.75 0 0 1-1.046 1.076zM6.96 12.236l3.358 3.26-5.295 1.907 1.937-5.168zm1.826-6.281a7.3 7.3 0 0 1 1.264.304c1.034.345 2.389 1.027 3.73 2.37a12.92 12.92 0 0 1 2.587 3.65c.233.5.378.923.48 1.222l.001.003c.07.205.128.425.152.555.073.364-.146.68-.496.805l-1.9.684-1.217-1.156.816-.294c-.816-.317-2.42-1.349-3.483-2.41-1.063-1.062-1.85-2.247-2.371-3.157l-.3.798-1.181-1.121.68-1.813a.75.75 0 0 1 .702-.487c.1 0 .44.033.536.047zm6.166 6.84A11.473 11.473 0 0 0 12.72 9.69c-1.15-1.149-2.286-1.717-3.124-2C9.693 8.38 11 10 11.78 10.63c.94.871 2.423 1.871 3.172 2.166z" clip-rule="evenodd"/></svg>