<svg class="svg-icon" xmlns="http://www.w3.org/2000/svg" width="16" height="16" viewBox="0 0 32 32" icon="barbecue"><path d="M12.674 4.414c0-1.1-.672-1.697-1.85-2.57l1.25-1.688.021.016c1.097.812 2.68 1.984 2.68 4.242 0 .666-.227 1.237-.494 1.706-.254.444-.58.856-.85 1.196l-.022.027c-.295.372-.526.666-.693.958-.16.28-.217.488-.217.665 0 1.099.672 1.696 1.85 2.57l-1.25 1.687-.022-.016c-1.096-.812-2.68-1.984-2.68-4.241 0-.666.227-1.238.495-1.706.253-.445.58-.857.85-1.196l.022-.028c.295-.371.526-.666.692-.957.16-.28.218-.488.218-.665Zm6.827 0c0-1.1-.672-1.697-1.85-2.57L18.9.156l.022.016c1.096.812 2.68 1.984 2.68 4.242 0 .666-.227 1.237-.495 1.706-.253.444-.58.856-.85 1.196l-.022.027c-.295.372-.526.666-.692.958-.16.28-.218.488-.218.665 0 1.099.672 1.696 1.851 2.57l-1.25 1.687-.022-.016c-1.097-.812-2.68-1.984-2.68-4.241 0-.666.227-1.238.494-1.706.254-.445.58-.857.85-1.196l.022-.028c.295-.371.526-.666.693-.957.16-.28.217-.488.217-.665Z"/><path fill-rule="evenodd" d="M2.345 16.843h2.363v.088a11.28 11.28 0 0 0 4.996 9.375l-1.355 5.418h2.215l1.092-4.367c1.03.43 2.136.71 3.294.818v3.55h2.1v-3.55a11.225 11.225 0 0 0 3.294-.818l1.092 4.367h2.215l-1.355-5.418a11.28 11.28 0 0 0 4.996-9.375v-.088h2.363v-2.1H2.345v2.1Zm4.464.088v-.088h18.382v.088a9.191 9.191 0 0 1-18.382 0Z" clip-rule="evenodd"/></svg>