<svg xmlns="http://www.w3.org/2000/svg" width="16" height="16" viewBox="0 0 32 32" icon="parking"><path fill-rule="evenodd" d="M11.692 7.462a1 1 0 0 0-1 1v17.23h2v-5.461h4.385a6.385 6.385 0 1 0 0-12.77h-5.385Zm5.385 10.769h-4.385V9.46h4.385a4.385 4.385 0 1 1 0 8.77Z" clip-rule="evenodd"/><path fill-rule="evenodd" d="M16 1C7.716 1 1 7.716 1 16c0 8.284 6.716 15 15 15 8.284 0 15-6.716 15-15 0-8.284-6.716-15-15-15ZM3 16C3 8.82 8.82 3 16 3s13 5.82 13 13-5.82 13-13 13S3 23.18 3 16Z" clip-rule="evenodd"/></svg>