<svg class="svg-icon" xmlns="http://www.w3.org/2000/svg" viewBox="0 0 32 32"><path d="M15 32v-4.857l-2.97 2.227-1.2-1.6L15 24.643v-6.91l-5.985 3.455-.624 5.176-1.985-.24.444-3.686-4.206 2.428-1-1.732 4.207-2.429-3.417-1.46.786-1.838 4.796 2.048L14 16l-5.986-3.456-4.795 2.048-.786-1.839 3.416-1.459-4.206-2.428 1-1.732L6.85 9.562l-.444-3.687 1.986-.24.623 5.177L15 14.268v-6.91l-4.171-3.13 1.2-1.6L15 4.859V0h2v4.857l2.972-2.228 1.2 1.6L17 7.357v6.911l5.985-3.455.624-5.177 1.986.24-.445 3.687 4.207-2.429 1 1.732-4.207 2.429 3.416 1.46-.786 1.838-4.795-2.048L18 16l5.986 3.456 4.794-2.049.786 1.84-3.415 1.459 4.206 2.428-1 1.732-4.207-2.429.445 3.688-1.986.24-.624-5.178L17 17.732v6.91l4.172 3.13-1.2 1.6L17 27.141V32h-2z"/></svg>