<svg class="svg-icon" aria-hidden="true" viewBox="0 0 24 24" xmlns="http://www.w3.org/2000/svg"><path d="M20.477 2.188a.75.75 0 0 1 .012 1.06 1.06 1.06 0 0 0 .009 1.489c.991.993 1 2.597.021 3.598a.75.75 0 0 1-1.073-1.049 1.06 1.06 0 0 0-.009-1.489 2.56 2.56 0 0 1-.021-3.596.75.75 0 0 1 1.06-.013zm-1.953 3.795a.75.75 0 0 1 .012 1.06 1.06 1.06 0 0 0 .01 1.49.75.75 0 0 1-1.062 1.06 2.56 2.56 0 0 1-.02-3.598.75.75 0 0 1 1.06-.012z"/><path fill-rule="evenodd" d="M18.703 15.428h-.738l-1.545-1.5h.533v-2.075H14.28l-1.546-1.5h5.969a2.538 2.538 0 1 1 0 5.075zm-.25-1.5c.984 0 1.289-.428 1.289-1.038 0-.609-.305-1.038-1.289-1.038v2.076zm-14.95-3.575a.75.75 0 0 0-.75.75v3.576a.75.75 0 0 0 .75.75h10.415l6.08 5.9a.75.75 0 0 0 1.044-1.077l-17.52-17a.75.75 0 0 0-1.044 1.076l6.208 6.025H3.503zm5.22 3.576h3.649l-2.14-2.076H8.724v2.076zm-4.47 0v-2.076h2.97v2.076h-2.97z" clip-rule="evenodd"/></svg>