<svg class="svg-icon" aria-hidden="true" viewBox="0 0 24 24" xmlns="http://www.w3.org/2000/svg" xmlns:xlink="http://www.w3.org/1999/xlink"><path d="M15.5 9.983V8.75a.75.75 0 1 0-1.5 0v1.233a.75.75 0 1 0 1.5 0Zm2.231.206a.75.75 0 0 0 .692-1.037l-.473-1.139a.75.75 0 1 0-1.384.575l.473 1.14a.75.75 0 0 0 .692.461Zm-6.231-.057a.75.75 0 0 0 .98-.406l.472-1.139a.75.75 0 0 0-1.386-.574l-.472 1.14a.75.75 0 0 0 .406.98Z"/><path d="M17.75 2.516a3.757 3.757 0 0 0-3.675 3.01h-.638a.75.75 0 1 0 0 1.5h2.643a.75.75 0 1 0 0-1.5h-.444a2.248 2.248 0 0 1 2.114-1.509c1.24 0 2.25 1.01 2.25 2.252v7.441a4.542 4.542 0 0 1-4.536 4.54H8.535A4.542 4.542 0 0 1 4 13.71v-.25h13.521a.75.75 0 1 0 0-1.502H3.25a.75.75 0 0 0-.75.75v1.001a6.047 6.047 0 0 0 3.681 5.561l-.578 1.158a.75.75 0 0 0 1.341.673l.709-1.422c.289.043.581.073.881.073h6.929c.3 0 .593-.03.882-.073l.71 1.422a.748.748 0 0 0 1.383-.098.75.75 0 0 0-.041-.573l-.579-1.158a6.049 6.049 0 0 0 3.681-5.56V6.268a3.755 3.755 0 0 0-3.749-3.752Z"/></svg>