<svg class="svg-icon" xmlns="http://www.w3.org/2000/svg" viewBox="0 0 32 32"><path fill-rule="evenodd" d="M21.616 3.532a1 1 0 0 1 1.127-.502l2 .5a1 1 0 0 1 .747 1.111l-.41 2.877 5.475 3.65a1 1 0 0 1 .277 1.387l-2 3a1 1 0 0 1-1.075.415l-3.45-.863-1.34 1.341-.97 11.635A1 1 0 0 1 21 29h-4a1 1 0 0 1-.986-.836L15.153 23h-4.306l-.86 5.164A1 1 0 0 1 9 29H5a1 1 0 0 1-.997-.92L3.03 15.904.241 12.65l1.518-1.302 2.613 3.049 12.962-2.778 4.282-8.088zm-2.214 8.456L22 14.586l1.293-1.293a1 1 0 0 1 .95-.263l3.316.829 1.054-1.582-5.168-3.445a1 1 0 0 1-.435-.973l.372-2.608-.365-.09-3.615 6.827zm1.563 4.391-2.876-2.875-13.022 2.79L5.923 27h2.23l.86-5.164A1 1 0 0 1 10 21h6a1 1 0 0 1 .986.836L17.847 27h2.233l.885-10.62z" clip-rule="evenodd"/></svg>