<svg xmlns="http://www.w3.org/2000/svg" width="16" height="16" viewBox="0 0 32 32" icon="coffee_machine"><path fill-rule="evenodd" d="M5 2.8c0-.11.09-.2.2-.2h6.209a2.204 2.204 0 0 0-.009.2v2.4a2.2 2.2 0 0 0 2.2 2.2H15V10h2V7.4h1.4a2.2 2.2 0 0 0 2.2-2.2V2.8c0-.067-.003-.134-.009-.2H23.2v-2h-18A2.2 2.2 0 0 0 3 2.8v26.4a2.2 2.2 0 0 0 2.2 2.2H28v-2H5.2a.2.2 0 0 1-.2-.2V2.8Zm13.4-.2h-4.8a.2.2 0 0 0-.2.2v2.4c0 .11.09.2.2.2h4.8a.2.2 0 0 0 .2-.2V2.8a.2.2 0 0 0-.2-.2Z" clip-rule="evenodd"/><path fill-rule="evenodd" d="M7.8 12.4a1 1 0 0 1 1-1h14.4a1 1 0 0 1 1 1c0 .883-.016 1.751-.051 2.6H26.8a2.2 2.2 0 0 1 2.2 2.2v6h-2v-6a.2.2 0 0 0-.2-.2h-2.774c-.328 3.967-1.164 7.412-2.855 9.89-.413.605-1.09.91-1.757.91h-6.828a2.117 2.117 0 0 1-1.757-.91C8.51 23.494 7.8 18.282 7.8 12.4Zm2.007 1c.082 5.38.84 9.674 2.674 12.362.004.006.031.038.105.038h6.828c.074 0 .101-.031.105-.038 1.835-2.688 2.592-6.982 2.674-12.362H9.807Z" clip-rule="evenodd"/></svg>